<svg xmlns="http://www.w3.org/2000/svg" version="1.1" xmlns:xlink="http://www.w3.org/1999/xlink" xmlns:svgjs="http://svgjs.dev/svgjs" width="2000" height="1045" viewBox="0 0 2000 1045"><g transform="matrix(1,0,0,1,-1.211053272149229,1.1736132892499427)"><svg viewBox="0 0 396 207" data-background-color="#1d366f" preserveAspectRatio="xMidYMid meet" height="1045" width="2000" xmlns="http://www.w3.org/2000/svg" xmlns:xlink="http://www.w3.org/1999/xlink"><g id="tight-bounds" transform="matrix(1,0,0,1,0.24021145211446537,-0.23198902645685848)"><svg viewBox="0 0 395.52 207.46412466863052" height="207.46412466863052" width="395.52"><g><svg viewBox="0 0 395.52 207.46412466863052" height="207.46412466863052" width="395.52"><g transform="matrix(1,0,0,1,0,139.66519834494753)"><svg viewBox="0 0 395.52 67.79892632368299" height="67.79892632368299" width="395.52"><g id="textblocktransform"><svg viewBox="0 0 395.52 67.79892632368299" height="67.79892632368299" width="395.52" id="textblock"><g><svg viewBox="0 0 395.52 67.79892632368299" height="67.79892632368299" width="395.52"><g transform="matrix(1,0,0,1,0,0)"><svg width="395.52" viewBox="0.5703096389770508 -22.019790649414062 289.5889892578125 49.640541076660156" height="67.79892632368299" data-palette-color="#0074d9"><path d="M14.562 15.588l-13.992-2.595 6.494-35.013 12.88 2.389c2.419 0.449 4.435 1.056 6.049 1.823 1.615 0.761 2.884 1.65 3.807 2.669 0.924 1.012 1.52 2.15 1.788 3.414 0.275 1.258 0.279 2.608 0.011 4.05v0c-0.146 0.787-0.398 1.523-0.755 2.209-0.364 0.685-0.845 1.304-1.443 1.858-0.598 0.554-1.321 1.019-2.171 1.397-0.851 0.385-1.84 0.669-2.966 0.854v0c2.203 0.992 3.738 2.219 4.606 3.682 0.874 1.464 1.129 3.179 0.765 5.145v0c-0.276 1.488-0.821 2.821-1.637 3.999-0.814 1.171-1.867 2.132-3.158 2.882-1.291 0.744-2.802 1.233-4.534 1.468-1.732 0.235-3.647 0.158-5.744-0.231zM17.119 0.705l-5.674-1.052-1.617 8.721 5.722 1.061c1.075 0.199 1.979 0.225 2.712 0.076 0.725-0.144 1.321-0.396 1.788-0.757 0.467-0.361 0.823-0.8 1.068-1.317 0.245-0.517 0.42-1.058 0.524-1.622v0c0.119-0.642 0.141-1.235 0.066-1.778-0.076-0.543-0.284-1.029-0.625-1.458-0.341-0.429-0.831-0.802-1.471-1.117-0.64-0.315-1.471-0.568-2.493-0.757zM14.056-14.427l-1.602 8.642 4.228 0.784c0.898 0.167 1.719 0.254 2.463 0.264 0.745 0.003 1.4-0.11 1.964-0.338 0.563-0.221 1.028-0.589 1.395-1.104 0.373-0.514 0.638-1.194 0.795-2.039v0c0.154-0.832 0.178-1.543 0.07-2.133-0.106-0.596-0.345-1.101-0.715-1.516-0.371-0.415-0.874-0.755-1.509-1.022-0.642-0.268-1.418-0.487-2.33-0.656v0zM69.968 5.697v0c-0.342 2.557-1.103 4.873-2.282 6.949-1.172 2.076-2.667 3.82-4.484 5.231-1.817 1.412-3.913 2.426-6.289 3.043-2.376 0.617-4.935 0.742-7.678 0.375v0c-2.742-0.367-5.185-1.161-7.328-2.383-2.137-1.221-3.899-2.752-5.288-4.592-1.388-1.84-2.375-3.916-2.96-6.228-0.585-2.311-0.707-4.746-0.365-7.303v0c0.341-2.551 1.098-4.864 2.271-6.94 1.172-2.076 2.67-3.816 4.492-5.22 1.821-1.397 3.924-2.404 6.306-3.02 2.39-0.622 4.957-0.749 7.699-0.383v0c2.742 0.367 5.178 1.167 7.306 2.401 2.129 1.227 3.885 2.756 5.268 4.589 1.383 1.826 2.368 3.895 2.953 6.206 0.591 2.319 0.717 4.744 0.378 7.275zM61.582 4.575v0c0.233-1.744 0.219-3.344-0.044-4.798-0.269-1.455-0.762-2.725-1.477-3.81-0.722-1.085-1.66-1.968-2.814-2.647-1.16-0.68-2.523-1.125-4.089-1.334v0c-1.586-0.212-3.028-0.143-4.326 0.208-1.305 0.35-2.448 0.954-3.431 1.811-0.976 0.858-1.782 1.954-2.417 3.289-0.643 1.333-1.08 2.872-1.314 4.616v0c-0.236 1.764-0.219 3.374 0.05 4.829 0.262 1.461 0.751 2.73 1.467 3.809 0.722 1.085 1.667 1.965 2.835 2.639 1.161 0.673 2.534 1.116 4.121 1.328v0c1.566 0.21 2.998 0.142 4.294-0.202 1.291-0.345 2.427-0.946 3.41-1.804 0.975-0.852 1.784-1.947 2.427-3.287 0.636-1.334 1.072-2.883 1.308-4.647zM108.669 8.771v0c-0.205 2.572-0.841 4.925-1.907 7.061-1.06 2.136-2.459 3.957-4.197 5.464-1.738 1.507-3.778 2.632-6.118 3.375-2.34 0.743-4.889 1.005-7.646 0.785v0c-2.758-0.22-5.24-0.882-7.446-1.988-2.199-1.105-4.041-2.539-5.526-4.302-1.485-1.763-2.581-3.784-3.289-6.061-0.708-2.277-0.96-4.701-0.755-7.272v0c0.204-2.565 0.836-4.916 1.897-7.052 1.06-2.136 2.462-3.954 4.206-5.453 1.744-1.493 3.789-2.611 6.136-3.353 2.354-0.749 4.909-1.013 7.667-0.794v0c2.758 0.22 5.233 0.888 7.424 2.006 2.192 1.111 4.027 2.545 5.506 4.301 1.479 1.75 2.573 3.763 3.281 6.04 0.714 2.284 0.97 4.699 0.767 7.243zM100.235 8.099v0c0.14-1.754 0.04-3.351-0.3-4.789-0.347-1.439-0.907-2.68-1.68-3.725-0.779-1.045-1.763-1.876-2.951-2.492-1.195-0.617-2.58-0.988-4.155-1.114v0c-1.595-0.127-3.031 0.019-4.308 0.44-1.284 0.419-2.394 1.083-3.329 1.992-0.928 0.909-1.675 2.047-2.238 3.413-0.57 1.366-0.925 2.926-1.065 4.68v0c-0.141 1.774-0.039 3.381 0.308 4.819 0.34 1.445 0.896 2.686 1.669 3.725 0.779 1.045 1.77 1.873 2.973 2.484 1.195 0.61 2.59 0.979 4.185 1.106v0c1.575 0.125 3.001-0.018 4.278-0.432 1.27-0.414 2.373-1.075 3.308-1.984 0.928-0.902 1.677-2.04 2.248-3.412 0.564-1.366 0.916-2.937 1.057-4.711zM121.14-8.67l-0.426 14.414 1.32 0.038c1.226 0.036 2.117-0.321 2.672-1.071v0l8.36-11.389c0.458-0.62 0.971-1.035 1.537-1.245 0.567-0.217 1.26-0.313 2.08-0.288v0l7.177 0.211-10.981 14.083c-0.389 0.509-0.791 0.927-1.207 1.254-0.417 0.335-0.842 0.609-1.275 0.823v0c0.613 0.245 1.17 0.575 1.672 0.99 0.501 0.415 0.955 0.962 1.362 1.641v0l10.258 16.83-7.377-0.218c-0.473-0.014-0.875-0.059-1.206-0.136-0.331-0.076-0.618-0.182-0.861-0.315-0.236-0.14-0.441-0.306-0.616-0.498-0.174-0.192-0.341-0.414-0.501-0.666v0l-7.691-12.622c-0.28-0.462-0.64-0.793-1.081-0.992-0.441-0.2-1.045-0.311-1.811-0.334v0l-2.009-0.059-0.447 15.143-8.256-0.243 1.05-35.595zM144.287-8.058l28.296-0.448 0.104 6.549-10.019 0.159 0.46 29.056-8.259 0.131-0.46-29.056-10.019 0.158zM190.498-9.612l15.746 34.786-6.39 0.357c-0.719 0.04-1.317-0.093-1.795-0.4-0.485-0.307-0.831-0.715-1.04-1.224v0l-2.443-6.083-13.519 0.755-1.751 6.318c-0.141 0.462-0.434 0.889-0.88 1.281-0.452 0.393-1.021 0.608-1.706 0.646v0l-6.44 0.36 11.772-36.324zM185.374 2.994l-2.724 9.867 9.705-0.542-3.809-9.552c-0.248-0.607-0.538-1.322-0.871-2.145-0.326-0.823-0.657-1.716-0.991-2.679v0c-0.204 1.013-0.422 1.95-0.654 2.811-0.226 0.861-0.444 1.607-0.656 2.24zM223.818 23.432l-14.16 1.412-3.532-35.435 13.035-1.299c2.448-0.244 4.554-0.223 6.318 0.064 1.763 0.28 3.23 0.78 4.4 1.5 1.17 0.714 2.06 1.64 2.669 2.779 0.615 1.131 0.996 2.427 1.141 3.886v0c0.079 0.796 0.043 1.573-0.109 2.333-0.159 0.759-0.448 1.488-0.867 2.187-0.419 0.698-0.985 1.348-1.696 1.947-0.71 0.607-1.58 1.156-2.609 1.647v0c2.392 0.338 4.209 1.088 5.45 2.251 1.248 1.162 1.971 2.738 2.17 4.728v0c0.15 1.506-0.002 2.938-0.456 4.296-0.455 1.352-1.198 2.568-2.229 3.649-1.032 1.074-2.347 1.966-3.945 2.675-1.598 0.709-3.458 1.169-5.58 1.38zM222.121 8.426l-5.741 0.573 0.879 8.826 5.792-0.577c1.088-0.108 1.963-0.336 2.625-0.684 0.656-0.34 1.158-0.749 1.506-1.225 0.348-0.477 0.567-0.998 0.658-1.563 0.091-0.565 0.108-1.133 0.051-1.704v0c-0.065-0.65-0.209-1.225-0.433-1.725-0.224-0.5-0.56-0.909-1.007-1.227-0.447-0.317-1.022-0.538-1.724-0.662-0.702-0.124-1.571-0.135-2.606-0.032zM214.959-5.251l0.872 8.747 4.279-0.427c0.909-0.091 1.722-0.235 2.439-0.434 0.716-0.205 1.314-0.496 1.792-0.872 0.479-0.369 0.823-0.852 1.031-1.449 0.215-0.598 0.28-1.324 0.195-2.18v0c-0.084-0.842-0.26-1.532-0.528-2.068-0.268-0.543-0.639-0.961-1.11-1.256-0.472-0.295-1.05-0.482-1.734-0.561-0.691-0.079-1.498-0.072-2.42 0.02v0zM245.281-15.021l4.021 28.73 13.072-1.83 0.915 6.537-21.253 2.974-4.935-35.266zM261.386-17.434l22.581-3.988 1.106 6.263-14.397 2.543 1.445 8.183 11.019-1.946 1.063 6.017-11.02 1.946 1.475 8.351 14.397-2.543 1.104 6.254-22.58 3.987z" opacity="1" transform="matrix(1,0,0,1,0,0)" fill="#0074d9" class="wordmark-text-0" data-fill-palette-color="primary" id="text-0"></path></svg></g></svg></g></svg></g></svg></g><g transform="matrix(1,0,0,1,138.46542348225194,0)"><svg viewBox="0 0 118.58915303549612 135.59785264736598" height="135.59785264736598" width="118.58915303549612"><g><svg xmlns:dc="http://purl.org/dc/elements/1.1/" xmlns:cc="http://creativecommons.org/ns#" xmlns:rdf="http://www.w3.org/1999/02/22-rdf-syntax-ns#" xmlns:svg="http://www.w3.org/2000/svg" xmlns="http://www.w3.org/2000/svg" xmlns:sodipodi="http://sodipodi.sourceforge.net/DTD/sodipodi-0.dtd" xmlns:inkscape="http://www.inkscape.org/namespaces/inkscape" version="1.1" x="0" y="0" viewBox="18.638320922851562 14.140257835388184 62.723358154296875 71.719482421875" enable-background="new 0 0 100 100" xml:space="preserve" height="135.59785264736598" width="118.58915303549612" class="icon-icon-0" data-fill-palette-color="accent" id="icon-0"><g fill="#0074d9" data-fill-palette-color="accent"><path d="M49.795 14.14c-8.013 0-15.285 1.222-20.719 3.282-2.717 1.03-4.986 2.257-6.688 3.781-1.701 1.524-2.875 3.463-2.875 5.656l0 0.094 0 0.062c0.299 3.467-0.501 8.194-0.843 12.594l-0.032 0.438 0.157 0.406c0 0 1.755 4.466 6.562 4.844 2.204 0.173 3.788-0.437 4.563-0.75 0.356-0.144 0.467-0.154 0.437-0.157 0.017 0.012-0.004 0.009 0.031 0.032 0.224 0.141 0.487 0.739 1.313 1.937 0.825 1.198 2.513 2.578 5.031 2.844 2.489 0.263 4.46-0.578 5.906-1.219l0 18.875 0 0.063 0 0.062c0 0 0.132 1.148-0.093 2.438-0.226 1.289-0.757 2.532-1.969 3.062l-0.063 0.031-0.031 0.032c-2.754 1.598-5.578 3.502-7.594 5.218-1.008 0.859-1.816 1.665-2.343 2.438-0.264 0.386-0.488 0.768-0.563 1.25-0.074 0.482 0.14 1.139 0.563 1.5 0.384 0.328 0.858 0.439 1.281 0.437 0.424-0.002 0.83-0.087 1.219-0.218 0.777-0.264 1.551-0.715 2.375-1.157 1.647-0.883 3.465-1.744 4.375-1.718 1.288 0.035 2.691 0.304 3.875 0.75 1.184 0.446 2.115 1.105 2.5 1.625 1.178 1.592 1.881 2.3 2.218 2.625 0.293 0.282 0.71 0.58 1.25 0.562 0.54-0.017 0.897-0.294 1.157-0.531 0.283-0.259 0.293-0.363 0.406-0.531 0.113-0.168 0.24-0.345 0.406-0.563 0.332-0.436 0.78-0.957 1.406-1.406 1.39-0.997 3.91-2.463 6.375-2.531 0.91-0.025 2.728 0.836 4.375 1.718 0.824 0.442 1.598 0.892 2.375 1.157 0.388 0.132 0.795 0.217 1.219 0.218 0.424 0.002 0.898-0.11 1.281-0.437 0.422-0.361 0.637-1.018 0.563-1.5-0.074-0.482-0.299-0.864-0.563-1.25-0.527-0.773-1.336-1.579-2.343-2.438-2.015-1.717-4.84-3.621-7.594-5.218l-0.031-0.032-0.063-0.031c-1.212-0.53-1.743-1.773-1.969-3.062-0.226-1.289-0.094-2.438-0.093-2.438l0-0.062 0-0.063 0-17.469c1.03-0.58 1.782-1.218 2.375-1.593 0.86-0.544 1.305-0.781 2.843-0.5 1.853 0.338 2.675 0.674 3.563 0.937 0.887 0.263 2.137 0.365 3.312 0 2.163-0.672 3.245-2.14 3.813-2.719 0.568-0.578 0.539-0.775 2.406-0.656 1.619 0.103 3.097-0.262 4.313-1 1.148-0.697 2.152-1.951 2.125-3.531l0.062 0c0.002-0.063-0.002-0.125 0-0.188 0.001-0.021 0-0.042 0-0.062 0.057-2.441-0.423-4.831-0.812-7.063-0.403-2.308-0.697-4.422-0.5-5.875l0.031-0.156 0-0.125c0-2.193-1.174-4.132-2.875-5.656-1.701-1.524-3.971-2.752-6.688-3.781-5.434-2.059-12.706-3.281-20.718-3.282z m0 4c7.603 0 14.478 1.18 19.281 3 2.402 0.91 4.276 1.99 5.437 3.032 1.162 1.041 1.563 1.921 1.563 2.687l0.031 0c-0.044 0.395-0.053 0.79-0.062 1.188-0.1 0.116-0.183 0.218-0.313 0.343-0.939 0.908-2.695 2.052-6 2.719a1 1 0 1 0 0.375 1.938c2.821-0.569 4.73-1.493 6.031-2.438 0.11 1.041 0.29 2.071 0.469 3.094 0.409 2.342 0.822 4.63 0.75 6.5l0 0.062c-0.01 0.004-0.054 0.069-0.25 0.188-0.391 0.237-1.155 0.46-2 0.406-2.656-0.17-4.542 0.868-5.5 1.844-0.958 0.976-1.068 1.38-2.156 1.719-0.587 0.183-0.318 0.162-0.969-0.032-0.651-0.193-1.926-0.647-4.031-1.031-2.419-0.441-4.388 0.241-5.688 1.063-1.299 0.822-2.047 1.519-3.093 1.875-0.789 0.269-1.358 0.087-2.469-0.532-1.11-0.618-2.43-1.662-4.25-2.312-2.235-0.799-4.224 0.132-5.688 0.781-1.463 0.65-2.615 1.125-4.093 0.969-1.581-0.167-1.716-0.455-2.157-1.094-0.44-0.639-0.886-2.048-2.5-3.062-0.71-0.446-1.597-0.703-2.375-0.657-0.778 0.046-1.311 0.273-1.718 0.438-0.816 0.329-1.279 0.584-2.75 0.469-2.158-0.17-2.763-1.463-2.938-1.907 0.274-3.133 0.798-6.613 0.844-9.968 1.878 1.145 4.856 2.713 8.969 4.031 7.39 2.369 18.346 3.933 32.687 0.781a1 1 0 1 0-0.437-1.937c-13.999 3.077-24.571 1.553-31.657-0.719-4.972-1.594-8.152-3.515-9.625-4.531-0.004-0.062 0.005-0.126 0-0.188 0-0.767 0.401-1.647 1.563-2.687 1.162-1.041 3.036-2.121 5.437-3.032 4.803-1.82 11.678-3 19.282-3z m-4.688 29c0.166-0.004 0.321 0.01 0.469 0.063 1.007 0.36 2.216 1.243 3.687 2.062 1.372 0.764 3.266 1.477 5.282 0.969l0 16.5c0 0 0.001 0.12 0 0.125-0.013 0.109-0.147 1.353 0.125 2.906 0.279 1.591 1.057 3.578 3.031 4.5 0.034 0.02 0.06 0.043 0.094 0.063 2.632 1.534 5.371 3.394 7.218 4.969 0.921 0.785 1.596 1.509 1.938 2-0.063-0.017-0.083-0.006-0.156-0.032-0.531-0.18-1.281-0.564-2.094-1-1.626-0.872-3.462-2.021-5.375-1.968-3.181 0.088-5.932 1.804-7.469 2.906-0.837 0.601-1.434 1.273-1.844 1.812-0.188 0.247-0.326 0.46-0.437 0.625-0.264-0.267-0.754-0.768-1.781-2.156-0.771-1.042-2-1.782-3.407-2.312-1.406-0.53-2.996-0.833-4.531-0.875-1.913-0.053-3.749 1.097-5.375 1.968-0.813 0.436-1.563 0.82-2.094 1-0.073 0.025-0.093 0.014-0.156 0.032 0.342-0.491 1.016-1.215 1.938-2 1.848-1.574 4.586-3.435 7.218-4.969 0.037-0.016 0.058-0.046 0.094-0.063 1.974-0.922 2.752-2.909 3.031-4.5 0.272-1.553 0.138-2.797 0.125-2.906-0.001-0.005 0-0.125 0-0.125l0-19.531c0.165-0.041 0.332-0.059 0.469-0.063z" fill="#0074d9" fill-opacity="1" stroke="none" marker="none" visibility="visible" display="inline" overflow="visible" text-indent="0" text-transform="none" direction="ltr" block-progression="tb" baseline-shift="baseline" color="#0074d9" enable-background="accumulate" data-fill-palette-color="accent"></path></g></svg></g></svg></g><g></g></svg></g><defs></defs></svg><rect width="395.52" height="207.46412466863052" fill="none" stroke="none" visibility="hidden"></rect></g></svg></g></svg>