<svg xmlns="http://www.w3.org/2000/svg" version="1.1" xmlns:xlink="http://www.w3.org/1999/xlink" xmlns:svgjs="http://svgjs.dev/svgjs" width="128" height="128" viewBox="0 0 128 128"><g transform="matrix(0.8046875,0,0,0.8046875,12.196380775208098,6.356084944834791)"><svg viewBox="0 0 84 95" data-background-color="#1d366f" preserveAspectRatio="xMidYMid meet" height="144" width="128" xmlns="http://www.w3.org/2000/svg" xmlns:xlink="http://www.w3.org/1999/xlink"><g id="tight-bounds" transform="matrix(1,0,0,1,0.24804047739993962,-0.24035183768967272)"><svg viewBox="0 0 83.50434772762416 95.481" height="95.481" width="83.50434772762416"><g><svg viewBox="0 0 83.50434772762416 95.481" height="95.481" width="83.50434772762416"><g><svg viewBox="0 0 83.50434772762416 95.481" height="95.481" width="83.50434772762416"><g id="textblocktransform"><svg viewBox="0 0 83.50434772762416 95.481" height="95.481" width="83.50434772762416" id="textblock"><g><svg viewBox="0 0 83.50434772762416 95.481" height="95.481" width="83.50434772762416"><g><svg viewBox="0 0 83.50434772762416 95.481" height="95.481" width="83.50434772762416"><g><svg xmlns:dc="http://purl.org/dc/elements/1.1/" xmlns:cc="http://creativecommons.org/ns#" xmlns:rdf="http://www.w3.org/1999/02/22-rdf-syntax-ns#" xmlns:svg="http://www.w3.org/2000/svg" xmlns="http://www.w3.org/2000/svg" xmlns:sodipodi="http://sodipodi.sourceforge.net/DTD/sodipodi-0.dtd" xmlns:inkscape="http://www.inkscape.org/namespaces/inkscape" version="1.1" x="0" y="0" viewBox="18.638322000000002 14.140258 62.72335524351804 71.7194834158935" enable-background="new 0 0 100 100" xml:space="preserve" height="95.481" width="83.50434772762416" class="icon-icon-0" data-fill-palette-color="accent" id="icon-0"><g fill="#0074d9" data-fill-palette-color="accent"><path d="M49.795 14.14c-8.013 0-15.285 1.222-20.719 3.282-2.717 1.03-4.986 2.257-6.688 3.781-1.701 1.524-2.875 3.463-2.875 5.656l0 0.094 0 0.062c0.299 3.467-0.501 8.194-0.843 12.594l-0.032 0.438 0.157 0.406c0 0 1.755 4.466 6.562 4.844 2.204 0.173 3.788-0.437 4.563-0.75 0.356-0.144 0.467-0.154 0.437-0.157 0.017 0.012-0.004 0.009 0.031 0.032 0.224 0.141 0.487 0.739 1.313 1.937 0.825 1.198 2.513 2.578 5.031 2.844 2.489 0.263 4.46-0.578 5.906-1.219l0 18.875 0 0.063 0 0.062c0 0 0.132 1.148-0.093 2.438-0.226 1.289-0.757 2.532-1.969 3.062l-0.063 0.031-0.031 0.032c-2.754 1.598-5.578 3.502-7.594 5.218-1.008 0.859-1.816 1.665-2.343 2.438-0.264 0.386-0.488 0.768-0.563 1.25-0.074 0.482 0.14 1.139 0.563 1.5 0.384 0.328 0.858 0.439 1.281 0.437 0.424-0.002 0.83-0.087 1.219-0.218 0.777-0.264 1.551-0.715 2.375-1.157 1.647-0.883 3.465-1.744 4.375-1.718 1.288 0.035 2.691 0.304 3.875 0.75 1.184 0.446 2.115 1.105 2.5 1.625 1.178 1.592 1.881 2.3 2.218 2.625 0.293 0.282 0.71 0.58 1.25 0.562 0.54-0.017 0.897-0.294 1.157-0.531 0.283-0.259 0.293-0.363 0.406-0.531 0.113-0.168 0.24-0.345 0.406-0.563 0.332-0.436 0.78-0.957 1.406-1.406 1.39-0.997 3.91-2.463 6.375-2.531 0.91-0.025 2.728 0.836 4.375 1.718 0.824 0.442 1.598 0.892 2.375 1.157 0.388 0.132 0.795 0.217 1.219 0.218 0.424 0.002 0.898-0.11 1.281-0.437 0.422-0.361 0.637-1.018 0.563-1.5-0.074-0.482-0.299-0.864-0.563-1.25-0.527-0.773-1.336-1.579-2.343-2.438-2.015-1.717-4.84-3.621-7.594-5.218l-0.031-0.032-0.063-0.031c-1.212-0.53-1.743-1.773-1.969-3.062-0.226-1.289-0.094-2.438-0.093-2.438l0-0.062 0-0.063 0-17.469c1.03-0.58 1.782-1.218 2.375-1.593 0.86-0.544 1.305-0.781 2.843-0.5 1.853 0.338 2.675 0.674 3.563 0.937 0.887 0.263 2.137 0.365 3.312 0 2.163-0.672 3.245-2.14 3.813-2.719 0.568-0.578 0.539-0.775 2.406-0.656 1.619 0.103 3.097-0.262 4.313-1 1.148-0.697 2.152-1.951 2.125-3.531l0.062 0c0.002-0.063-0.002-0.125 0-0.188 0.001-0.021 0-0.042 0-0.062 0.057-2.441-0.423-4.831-0.812-7.063-0.403-2.308-0.697-4.422-0.5-5.875l0.031-0.156 0-0.125c0-2.193-1.174-4.132-2.875-5.656-1.701-1.524-3.971-2.752-6.688-3.781-5.434-2.059-12.706-3.281-20.718-3.282z m0 4c7.603 0 14.478 1.18 19.281 3 2.402 0.91 4.276 1.99 5.437 3.032 1.162 1.041 1.563 1.921 1.563 2.687l0.031 0c-0.044 0.395-0.053 0.79-0.062 1.188-0.1 0.116-0.183 0.218-0.313 0.343-0.939 0.908-2.695 2.052-6 2.719a1 1 0 1 0 0.375 1.938c2.821-0.569 4.73-1.493 6.031-2.438 0.11 1.041 0.29 2.071 0.469 3.094 0.409 2.342 0.822 4.63 0.75 6.5l0 0.062c-0.01 0.004-0.054 0.069-0.25 0.188-0.391 0.237-1.155 0.46-2 0.406-2.656-0.17-4.542 0.868-5.5 1.844-0.958 0.976-1.068 1.38-2.156 1.719-0.587 0.183-0.318 0.162-0.969-0.032-0.651-0.193-1.926-0.647-4.031-1.031-2.419-0.441-4.388 0.241-5.688 1.063-1.299 0.822-2.047 1.519-3.093 1.875-0.789 0.269-1.358 0.087-2.469-0.532-1.11-0.618-2.43-1.662-4.25-2.312-2.235-0.799-4.224 0.132-5.688 0.781-1.463 0.65-2.615 1.125-4.093 0.969-1.581-0.167-1.716-0.455-2.157-1.094-0.44-0.639-0.886-2.048-2.5-3.062-0.71-0.446-1.597-0.703-2.375-0.657-0.778 0.046-1.311 0.273-1.718 0.438-0.816 0.329-1.279 0.584-2.75 0.469-2.158-0.17-2.763-1.463-2.938-1.907 0.274-3.133 0.798-6.613 0.844-9.968 1.878 1.145 4.856 2.713 8.969 4.031 7.39 2.369 18.346 3.933 32.687 0.781a1 1 0 1 0-0.437-1.937c-13.999 3.077-24.571 1.553-31.657-0.719-4.972-1.594-8.152-3.515-9.625-4.531-0.004-0.062 0.005-0.126 0-0.188 0-0.767 0.401-1.647 1.563-2.687 1.162-1.041 3.036-2.121 5.437-3.032 4.803-1.82 11.678-3 19.282-3z m-4.688 29c0.166-0.004 0.321 0.01 0.469 0.063 1.007 0.36 2.216 1.243 3.687 2.062 1.372 0.764 3.266 1.477 5.282 0.969l0 16.5c0 0 0.001 0.12 0 0.125-0.013 0.109-0.147 1.353 0.125 2.906 0.279 1.591 1.057 3.578 3.031 4.5 0.034 0.02 0.06 0.043 0.094 0.063 2.632 1.534 5.371 3.394 7.218 4.969 0.921 0.785 1.596 1.509 1.938 2-0.063-0.017-0.083-0.006-0.156-0.032-0.531-0.18-1.281-0.564-2.094-1-1.626-0.872-3.462-2.021-5.375-1.968-3.181 0.088-5.932 1.804-7.469 2.906-0.837 0.601-1.434 1.273-1.844 1.812-0.188 0.247-0.326 0.46-0.437 0.625-0.264-0.267-0.754-0.768-1.781-2.156-0.771-1.042-2-1.782-3.407-2.312-1.406-0.53-2.996-0.833-4.531-0.875-1.913-0.053-3.749 1.097-5.375 1.968-0.813 0.436-1.563 0.82-2.094 1-0.073 0.025-0.093 0.014-0.156 0.032 0.342-0.491 1.016-1.215 1.938-2 1.848-1.574 4.586-3.435 7.218-4.969 0.037-0.016 0.058-0.046 0.094-0.063 1.974-0.922 2.752-2.909 3.031-4.5 0.272-1.553 0.138-2.797 0.125-2.906-0.001-0.005 0-0.125 0-0.125l0-19.531c0.165-0.041 0.332-0.059 0.469-0.063z" fill="#0074d9" fill-opacity="1" stroke="none" marker="none" visibility="visible" display="inline" overflow="visible" text-indent="0" text-transform="none" direction="ltr" block-progression="tb" baseline-shift="baseline" color="#0074d9" enable-background="accumulate" data-fill-palette-color="accent"></path></g></svg></g></svg></g></svg></g></svg></g></svg></g><g></g></svg></g><defs></defs></svg><rect width="83.50434772762416" height="95.481" fill="none" stroke="none" visibility="hidden"></rect></g></svg></g></svg>